<svg width="1960" height="366" viewBox="0 0 1960 366" fill="none" xmlns="http://www.w3.org/2000/svg">
<path d="M985.07 299.861C985.07 314.306 995.688 324.357 1009.57 324.357C1020.19 324.357 1026.98 317.652 1026.98 317.652L1023.91 312.901C1023.91 312.901 1018.41 318.671 1009.85 318.671C1000.15 318.671 991.86 311.882 991.681 300.054H1027.64C1027.64 300.054 1027.82 298.002 1027.82 296.887C1027.82 285.238 1021.11 275.283 1008.17 275.283C995.592 275.283 985.07 284.494 985.07 299.861ZM991.956 295.014C993.54 285.61 1000.34 280.584 1008.07 280.584C1014.97 280.584 1020.93 285.334 1021.3 295.014H991.956ZM1044.12 317.555C1044.12 321.562 1045.8 323.242 1049.81 323.242H1056.42V317.748H1052.51C1051.2 317.748 1050.46 317.101 1050.46 315.696V263.441C1050.46 259.447 1048.78 257.768 1044.77 257.768H1038.16V263.262H1042.07C1043.38 263.262 1044.12 264.005 1044.12 265.313V317.555ZM1066.39 299.861C1066.39 314.306 1077.01 324.357 1090.88 324.357C1101.51 324.357 1108.3 317.652 1108.3 317.652L1105.23 312.901C1105.23 312.901 1099.73 318.671 1091.17 318.671C1081.47 318.671 1073.18 311.882 1073 300.054H1108.94C1108.94 300.054 1109.14 298.002 1109.14 296.887C1109.14 285.238 1102.43 275.283 1089.49 275.283C1076.91 275.283 1066.39 284.494 1066.39 299.861ZM1073.28 295.014C1074.86 285.61 1081.66 280.584 1089.39 280.584C1096.29 280.584 1102.25 285.334 1102.62 295.014H1073.28ZM1121.15 299.861C1121.15 314.388 1131.78 324.357 1145.74 324.357C1157.76 324.357 1164.1 316.715 1164.1 316.715L1161.11 311.979C1161.11 311.979 1155.62 318.588 1146.03 318.588C1136.14 318.588 1127.67 311.414 1127.67 299.861C1127.67 288.501 1135.79 280.956 1145.84 280.956C1149.75 280.956 1156.55 282.815 1156.55 286.739V289.438H1162.52V285.238C1162.52 277.513 1151.15 275.283 1145.84 275.283C1131.86 275.283 1121.15 285.527 1121.15 299.861ZM1179 306.195C1179 321.851 1189.89 323.614 1195.31 323.614C1196.89 323.614 1198 323.435 1198 323.435V317.748C1198 317.748 1197.16 317.927 1195.86 317.927C1192.32 317.927 1185.33 316.536 1185.33 305.548V281.699H1197.07V276.398H1185.33V263.441H1179.1V276.398H1172.84V281.699H1179V306.195ZM1213.37 323.242H1219.71V303.496C1219.71 300.522 1220.08 297.355 1221 294.367C1223.05 287.482 1228 282.264 1234.61 282.264C1235.82 282.264 1236.94 282.443 1236.94 282.443V276.205C1236.94 276.205 1235.72 275.93 1234.42 275.93C1227.06 275.93 1221.84 281.327 1219.61 288.405H1219.42C1219.42 288.405 1219.61 286.821 1219.61 284.866V281.699C1219.61 277.981 1217.85 276.398 1213.92 276.398H1207.41V281.892H1211.32C1212.63 281.892 1213.37 282.636 1213.37 283.944V323.242ZM1251.09 265.781H1257.25V257.768H1251.09V265.781ZM1251.29 317.555C1251.29 321.562 1252.97 323.242 1256.96 323.242H1263.58V317.748H1259.66C1258.36 317.748 1257.62 317.101 1257.62 315.696V282.071C1257.62 278.064 1255.94 276.398 1251.93 276.398H1245.32V281.892H1249.23C1250.54 281.892 1251.29 282.636 1251.29 283.944V317.555ZM1273.54 299.861C1273.54 314.388 1284.16 324.357 1298.14 324.357C1310.16 324.357 1316.48 316.715 1316.48 316.715L1313.51 311.979C1313.51 311.979 1308.01 318.588 1298.41 318.588C1288.54 318.588 1280.07 311.414 1280.07 299.861C1280.07 288.501 1288.17 280.956 1298.23 280.956C1302.14 280.956 1308.95 282.815 1308.95 286.739V289.438H1314.9V285.238C1314.9 277.513 1303.54 275.283 1298.23 275.283C1284.26 275.283 1273.54 285.527 1273.54 299.861ZM1326.45 310.478C1326.45 319.8 1334.56 324.357 1342.38 324.357C1354.12 324.357 1358.03 314.209 1357.93 314.209H1358.13C1358.13 314.209 1358.03 315.6 1358.03 317.652C1358.03 321.466 1359.61 323.242 1363.62 323.242H1370.05V317.748H1366.14C1364.83 317.748 1364.09 317.101 1364.09 315.696V293.252C1364.09 283.2 1360.55 275.283 1345.73 275.283C1341.64 275.283 1330.46 276.673 1330.46 283.2V287.661H1336.52V284.687C1336.52 281.231 1343.32 280.584 1345.65 280.584C1354.21 280.584 1357.75 284.026 1357.75 293.816V294.367H1355.14C1347.04 294.367 1326.45 294.932 1326.45 310.478ZM1332.98 310.106C1332.98 299.586 1347.69 299.393 1355.05 299.393H1357.75V301.541C1357.75 309.638 1352.35 318.96 1343.4 318.96C1336.42 318.96 1332.98 314.485 1332.98 310.106ZM1383.74 317.555C1383.74 321.562 1385.42 323.242 1389.43 323.242H1396.04V317.748H1392.13C1390.82 317.748 1390.07 317.101 1390.07 315.696V263.441C1390.07 259.447 1388.39 257.768 1384.39 257.768H1377.78V263.262H1381.69C1383 263.262 1383.74 264.005 1383.74 265.313V317.555ZM1435.07 310.478C1435.07 319.8 1443.16 324.357 1450.99 324.357C1462.73 324.357 1466.64 314.209 1466.55 314.209H1466.74C1466.74 314.209 1466.64 315.6 1466.64 317.652C1466.64 321.466 1468.23 323.242 1472.24 323.242H1478.65V317.748H1474.74C1473.45 317.748 1472.7 317.101 1472.7 315.696V293.252C1472.7 283.2 1469.15 275.283 1454.35 275.283C1450.24 275.283 1439.07 276.673 1439.07 283.2V287.661H1445.12V284.687C1445.12 281.231 1451.92 280.584 1454.25 280.584C1462.82 280.584 1466.36 284.026 1466.36 293.816V294.367H1463.75C1455.65 294.367 1435.07 294.932 1435.07 310.478ZM1441.58 310.106C1441.58 299.586 1456.3 299.393 1463.66 299.393H1466.36V301.541C1466.36 309.638 1460.96 318.96 1452.02 318.96C1445.02 318.96 1441.58 314.485 1441.58 310.106ZM1492.26 306.195C1492.26 318.395 1496.91 324.357 1508 324.357C1518.25 324.357 1524.39 317.101 1526.26 312.529H1526.44C1526.44 312.529 1526.26 314.016 1526.26 315.889V318.023C1526.26 321.562 1528.02 323.242 1531.93 323.242H1538.37V317.748H1534.45C1533.15 317.748 1532.4 317.101 1532.4 315.696V276.398H1526.07V298.842C1526.07 308.991 1519.46 318.395 1508.84 318.395C1499.81 318.395 1498.59 311.882 1498.59 304.515V281.892C1498.59 278.064 1496.91 276.398 1492.91 276.398H1486.3V281.892H1490.21C1491.52 281.892 1492.26 282.636 1492.26 283.944V306.195ZM1552.89 306.195C1552.89 321.851 1563.8 323.614 1569.2 323.614C1570.78 323.614 1571.9 323.435 1571.9 323.435V317.748C1571.9 317.748 1571.06 317.927 1569.75 317.927C1566.21 317.927 1559.23 316.536 1559.23 305.548V281.699H1570.96V276.398H1559.23V263.441H1552.99V276.398H1546.75V281.699H1552.89V306.195ZM1581.95 299.586C1581.95 313.741 1593.04 324.357 1606.74 324.357C1620.33 324.357 1631.42 313.741 1631.42 299.586C1631.42 285.706 1620.33 275.283 1606.64 275.283C1593.04 275.283 1581.95 285.706 1581.95 299.586ZM1588.48 299.586C1588.48 288.97 1596.67 281.052 1606.74 281.052C1616.7 281.052 1624.91 288.97 1624.91 299.586C1624.91 310.478 1616.7 318.671 1606.74 318.671C1596.67 318.671 1588.48 310.478 1588.48 299.586ZM1646.98 323.242H1653.32V301.073C1653.32 298.939 1653.5 296.791 1654.06 294.835C1656.02 287.661 1661.69 281.052 1669.33 281.052C1678.17 281.052 1679.21 287.937 1679.21 295.014V323.242H1685.54V301.073C1685.54 298.553 1685.73 296.323 1686.38 294.271C1688.24 287.386 1694.11 281.052 1701.19 281.052C1709.75 281.052 1711.34 287.386 1711.34 295.014V317.555C1711.34 321.562 1713.02 323.242 1717.02 323.242H1723.63V317.748H1719.72C1718.43 317.748 1717.67 317.101 1717.67 315.696V293.445C1717.67 281.892 1713.48 275.283 1702.12 275.283C1694.2 275.283 1687.4 280.68 1684.89 287.014H1684.7C1683.31 279.276 1678.83 275.283 1670.17 275.283C1662.9 275.283 1655.55 280.777 1653.22 287.097H1653.03C1653.03 287.097 1653.22 285.61 1653.22 283.751V281.603C1653.22 278.064 1651.44 276.398 1647.53 276.398H1641.02V281.892H1644.93C1646.24 281.892 1646.98 282.636 1646.98 283.944V323.242ZM1733.05 310.478C1733.05 319.8 1741.15 324.357 1748.97 324.357C1760.71 324.357 1764.63 314.209 1764.53 314.209H1764.71C1764.71 314.209 1764.63 315.6 1764.63 317.652C1764.63 321.466 1766.21 323.242 1770.21 323.242H1776.64V317.748H1772.73C1771.42 317.748 1770.68 317.101 1770.68 315.696V293.252C1770.68 283.2 1767.14 275.283 1752.33 275.283C1748.23 275.283 1737.05 276.673 1737.05 283.2V287.661H1743.11V284.687C1743.11 281.231 1749.91 280.584 1752.24 280.584C1760.8 280.584 1764.34 284.026 1764.34 293.816V294.367H1761.74C1753.63 294.367 1733.05 294.932 1733.05 310.478ZM1739.57 310.106C1739.57 299.586 1754.29 299.393 1761.64 299.393H1764.34V301.541C1764.34 309.638 1758.94 318.96 1749.99 318.96C1743.01 318.96 1739.57 314.485 1739.57 310.106ZM1790.99 306.195C1790.99 321.851 1801.88 323.614 1807.28 323.614C1808.86 323.614 1809.99 323.435 1809.99 323.435V317.748C1809.99 317.748 1809.15 317.927 1807.85 317.927C1804.31 317.927 1797.31 316.536 1797.31 305.548V281.699H1809.06V276.398H1797.31V263.441H1791.07V276.398H1784.83V281.699H1790.99V306.195ZM1825.64 265.781H1831.78V257.768H1825.64V265.781ZM1825.82 317.555C1825.82 321.562 1827.5 323.242 1831.51 323.242H1838.12V317.748H1834.2C1832.9 317.748 1832.15 317.101 1832.15 315.696V282.071C1832.15 278.064 1830.47 276.398 1826.48 276.398H1819.85V281.892H1823.78C1825.07 281.892 1825.82 282.636 1825.82 283.944V317.555ZM1848.09 299.586C1848.09 313.741 1859.17 324.357 1872.86 324.357C1886.47 324.357 1897.55 313.741 1897.55 299.586C1897.55 285.706 1886.47 275.283 1872.76 275.283C1859.17 275.283 1848.09 285.706 1848.09 299.586ZM1854.6 299.586C1854.6 288.97 1862.81 281.052 1872.86 281.052C1882.83 281.052 1891.03 288.97 1891.03 299.586C1891.03 310.478 1882.83 318.671 1872.86 318.671C1862.81 318.671 1854.6 310.478 1854.6 299.586ZM1913.1 323.242H1919.44V300.798C1919.44 298.553 1919.63 296.419 1920.18 294.464C1922.33 286.739 1929.21 281.231 1937.23 281.231C1946.26 281.231 1947.38 287.758 1947.38 295.111V317.555C1947.38 321.562 1949.06 323.242 1953.07 323.242H1959.68V317.748H1955.76C1954.46 317.748 1953.71 317.101 1953.71 315.696V293.445C1953.71 281.892 1949.61 275.283 1937.97 275.283C1926.98 275.283 1921.02 282.815 1919.34 287.097H1919.16C1919.16 287.097 1919.34 285.61 1919.34 283.751V281.603C1919.34 278.064 1917.58 276.398 1913.67 276.398H1907.14V281.892H1911.05C1912.36 281.892 1913.1 282.636 1913.1 283.944V323.242Z" fill="white"/>
<path d="M594.376 59.9666C582.079 54.087 577.052 52.1317 568.101 49.3365C556.643 45.9904 545.749 44.5859 533.452 44.5859C511.941 44.5859 500.483 47.6703 487.069 56.8822C481.203 61.0819 476.438 65.8325 473.367 70.583C468.905 77.5642 466.109 87.0652 466.109 96.2771C466.109 116.408 476.162 128.691 508.856 147.417L537.363 163.624C549.385 170.33 553.572 175.631 553.572 183.453C553.572 194.633 542.954 201.904 526.745 201.904C519.474 201.904 509.42 199.949 500.194 196.589C492.936 193.794 487.345 190.998 473.931 183.742L459.113 216.155C464.429 218.661 468.616 220.617 471.136 221.732C490.416 230.682 496.558 232.638 509.696 234.593C515.012 235.144 520.603 235.708 526.18 235.708C566.985 235.708 591.016 216.431 591.016 183.453C591.016 170.605 586.265 158.309 578.443 150.488C569.781 141.827 551.341 130.095 523.109 115.004C509.985 108.023 505.509 103.272 505.509 95.4509C505.509 85.1099 516.127 78.4041 532.612 78.4041C544.909 78.4041 560.843 82.8792 580.398 91.5403L594.376 59.9666ZM743.59 232.073V202.179H662.834V153.008H725.99V123.114H662.834V77.5642H739.968V47.6703H627.621V232.073H743.59ZM938.084 233.753V47.6703H904.84V184.582L903.16 181.222L901.48 176.471C901.204 175.921 900.64 174.791 899.8 172.836C898.973 170.881 898.133 169.49 897.844 168.926L820.435 47.6703H779.919V232.073H813.453V96.8416C814.293 99.9123 814.857 101.028 815.973 103.272C816.248 103.547 816.813 104.952 818.204 107.183C820.159 111.093 821.564 113.613 822.115 114.453L901.204 233.753H938.084ZM1106.32 59.9666C1094.02 54.087 1088.99 52.1317 1080.04 49.3365C1068.58 45.9904 1057.69 44.5859 1045.39 44.5859C1023.88 44.5859 1012.42 47.6703 999.009 56.8822C993.143 61.0819 988.378 65.8325 985.307 70.583C980.845 77.5642 978.049 87.0652 978.049 96.2771C978.049 116.408 988.102 128.691 1020.8 147.417L1049.3 163.624C1061.33 170.33 1065.51 175.631 1065.51 183.453C1065.51 194.633 1054.89 201.904 1038.68 201.904C1031.41 201.904 1021.36 199.949 1012.13 196.589C1004.88 193.794 999.285 190.998 985.871 183.742L971.053 216.155C976.369 218.661 980.556 220.617 983.076 221.732C1002.36 230.682 1008.5 232.638 1021.64 234.593C1026.95 235.144 1032.54 235.708 1038.13 235.708C1078.93 235.708 1102.96 216.431 1102.96 183.453C1102.96 170.605 1098.21 158.309 1090.38 150.488C1081.72 141.827 1063.28 130.095 1035.05 115.004C1021.93 108.023 1017.45 103.272 1017.45 95.4509C1017.45 85.1099 1028.07 78.4041 1044.55 78.4041C1056.85 78.4041 1072.78 82.8792 1092.34 91.5403L1106.32 59.9666ZM1318.98 139.872C1318.98 82.8792 1279.29 44.3105 1221.17 44.3105C1162.75 44.3105 1123.08 82.8792 1123.08 139.872C1123.35 196.038 1163.59 235.708 1221.17 235.708C1278.45 235.708 1318.98 196.038 1318.98 139.872ZM1281.53 139.872C1281.53 177.311 1255.82 204.974 1221.17 204.974C1186.23 204.974 1160.52 177.311 1160.52 139.872C1160.52 102.707 1186.23 74.7689 1221.17 74.7689C1255.82 74.7689 1281.53 102.707 1281.53 139.872ZM1486.35 232.073L1440.52 153.008C1455.89 148.808 1462.32 144.898 1469.3 135.961C1476.01 127.025 1479.37 115.568 1479.37 101.317C1479.37 83.9946 1474.34 70.583 1464.28 61.3573C1453.38 51.0163 1441.09 47.6703 1414.26 47.6703H1352.78V232.073H1388V158.309H1405.6L1447.79 232.073H1486.35ZM1443.04 102.157C1443.04 120.594 1433.26 128.415 1410.91 128.415H1388V77.5642H1410.91C1433.82 77.5642 1443.04 84.5454 1443.04 102.157ZM1682.53 139.307C1682.53 115.279 1673.59 91.8157 1657.66 74.7689C1639.49 55.4915 1617.69 47.6703 1582.77 47.6703H1514.31V232.073H1582.49C1615.74 232.073 1640.06 223.137 1657.11 204.974C1673.31 187.652 1682.53 163.9 1682.53 139.307ZM1644.52 139.596C1644.52 178.991 1621.05 201.064 1579.13 201.064H1551.19V78.6795H1579.13C1599.25 78.6795 1613.51 82.3147 1623.28 89.5713C1636.42 99.3615 1644.52 118.639 1644.52 139.596ZM1749.04 47.6703H1713.83V232.073H1749.04V47.6703ZM1958.34 233.753V47.6703H1925.08V184.582L1923.42 181.222L1921.74 176.471C1921.45 175.921 1920.9 174.791 1920.06 172.836C1919.22 170.881 1918.38 169.49 1918.1 168.926L1840.69 47.6703H1800.18V232.073H1833.71V96.8416C1834.55 99.9123 1835.1 101.028 1836.22 103.272C1836.51 103.547 1837.06 104.952 1838.46 107.183C1840.42 111.093 1841.81 113.613 1842.37 114.453L1921.45 233.753H1958.34Z" fill="white"/>
<path d="M222.753 330.775L17.8203 125.855C10.0118 142.214 4.00749 159.591 0 177.698L187.925 365.598L222.753 330.775Z" fill="white"/>
<path d="M377.048 176.499L156.209 177.38L51.8629 73.2266C41.0937 85.9635 31.5638 99.7882 23.5488 114.563L135.896 226.716L327.581 225.959L377.048 176.499Z" fill="white"/>
<path d="M362.383 113.587L181.908 113.325L98.8939 30.3633C85.329 39.8368 72.797 50.6322 61.4355 62.5842L161.485 162.552L390.656 162.896L401.177 152.376L362.383 113.587Z" fill="white"/>
<path d="M299.639 50.8512L209.298 50.7135L158.372 0C141.708 5.78324 125.843 13.2877 111.039 22.3619L188.93 99.9399L348.982 100.174L299.639 50.8512Z" fill="white"/>
</svg>
